<svg version="1.1" id="Layer_1" xmlns="http://www.w3.org/2000/svg" xmlns:xlink="http://www.w3.org/1999/xlink" x="0px" y="0px"
	 width="100%" viewBox="0 0 200 200" enable-background="new 0 0 200 200" xml:space="preserve">
<path fill="#131313" opacity="1.000000" stroke="none" 
	d="
M201.000000,58.000000 
	C201.000000,86.354225 201.000000,114.708458 200.615112,143.635056 
	C199.694519,147.686676 199.244110,151.181610 198.607300,154.642258 
	C196.565506,165.738327 191.203568,175.365692 183.211166,182.913284 
	C177.471497,188.333496 170.110962,192.074173 163.332947,196.340805 
	C160.404648,198.184097 157.121796,199.464111 154.000000,201.000000 
	C119.979103,201.000000 85.958214,201.000000 51.373993,200.626923 
	C49.650608,199.835358 48.499290,199.390472 47.328976,199.002960 
	C42.499187,197.403687 36.918060,196.850861 32.993843,194.007675 
	C25.994633,188.936554 19.451054,182.967102 13.717390,176.487976 
	C6.792224,168.662445 3.213583,159.077240 2.913960,148.409973 
	C2.872200,146.923233 1.666757,145.469177 1.000000,144.000000 
	C1.000000,115.645775 1.000000,87.291542 1.382344,58.372131 
	C2.358586,54.831341 2.897594,51.843552 3.554965,48.882034 
	C9.446744,22.339024 34.390629,2.635882 61.715637,2.935969 
	C87.830612,3.222767 113.951324,3.043781 140.069290,2.977917 
	C152.560425,2.946417 163.993484,6.201001 174.161789,13.513354 
	C188.426651,23.771679 197.716461,37.032959 199.084167,55.076393 
	C199.161285,56.093494 200.336090,57.027386 201.000000,58.000000 
M125.873314,73.234528 
	C123.947906,72.822830 122.025314,72.070541 120.096626,72.054550 
	C107.285286,71.948334 94.472229,71.939957 81.660561,72.024666 
	C75.043327,72.068420 71.073257,75.997887 71.027039,82.578751 
	C70.935890,95.556732 70.930267,108.536331 71.029793,121.514191 
	C71.079872,128.044449 75.104469,131.937881 81.753517,131.977829 
	C94.565285,132.054794 107.378159,132.054413 120.189941,131.978622 
	C127.073097,131.937912 130.944412,128.012436 130.981430,121.071701 
	C131.048859,108.426224 131.294708,95.768509 130.796188,83.142357 
	C130.669769,79.940414 128.019501,76.838120 125.873314,73.234528 
z"/>
<path fill="#000000" opacity="1.000000" stroke="none" 
	d="
M201.000000,57.531342 
	C200.336090,57.027386 199.161285,56.093494 199.084167,55.076393 
	C197.716461,37.032959 188.426651,23.771679 174.161789,13.513354 
	C163.993484,6.201001 152.560425,2.946417 140.069290,2.977917 
	C113.951324,3.043781 87.830612,3.222767 61.715637,2.935969 
	C34.390629,2.635882 9.446744,22.339024 3.554965,48.882034 
	C2.897594,51.843552 2.358586,54.831341 1.382344,57.903473 
	C1.000000,39.026505 1.000000,20.053007 1.000000,1.039755 
	C67.547150,1.039755 134.094330,1.039755 201.000000,1.039755 
	C201.000000,19.686033 201.000000,38.374359 201.000000,57.531342 
z"/>
<path fill="#000000" opacity="1.000000" stroke="none" 
	d="
M1.000000,144.468658 
	C1.666757,145.469177 2.872200,146.923233 2.913960,148.409973 
	C3.213583,159.077240 6.792224,168.662445 13.717390,176.487976 
	C19.451054,182.967102 25.994633,188.936554 32.993843,194.007675 
	C36.918060,196.850861 42.499187,197.403687 47.328976,199.002960 
	C48.499290,199.390472 49.650608,199.835358 50.905334,200.626923 
	C34.401772,201.000000 17.803543,201.000000 1.000000,201.000000 
	C1.000000,182.312943 1.000000,163.625122 1.000000,144.468658 
z"/>
<path fill="#000000" opacity="1.000000" stroke="none" 
	d="
M154.468658,201.000000 
	C157.121796,199.464111 160.404648,198.184097 163.332947,196.340805 
	C170.110962,192.074173 177.471497,188.333496 183.211166,182.913284 
	C191.203568,175.365692 196.565506,165.738327 198.607300,154.642258 
	C199.244110,151.181610 199.694519,147.686676 200.615112,144.103714 
	C201.000000,162.919724 201.000000,181.839432 201.000000,201.000000 
	C185.646606,201.000000 170.291962,201.000000 154.468658,201.000000 
z"/>
<path fill="#FDFAF5" opacity="1.000000" stroke="none" 
	d="
M126.201126,73.462280 
	C128.019501,76.838120 130.669769,79.940414 130.796188,83.142357 
	C131.294708,95.768509 131.048859,108.426224 130.981430,121.071701 
	C130.944412,128.012436 127.073097,131.937912 120.189941,131.978622 
	C107.378159,132.054413 94.565285,132.054794 81.753517,131.977829 
	C75.104469,131.937881 71.079872,128.044449 71.029793,121.514191 
	C70.930267,108.536331 70.935890,95.556732 71.027039,82.578751 
	C71.073257,75.997887 75.043327,72.068420 81.660561,72.024666 
	C94.472229,71.939957 107.285286,71.948334 120.096626,72.054550 
	C122.025314,72.070541 123.947906,72.822830 126.201126,73.462280 
z"/>
</svg>